<svg width="1200" height="630" viewBox="0 0 1200 630" fill="none" xmlns="http://www.w3.org/2000/svg">
  <!-- Background: deep blue gradient -->
  <defs>
    <linearGradient id="bg" x1="0" y1="0" x2="1200" y2="630" gradientUnits="userSpaceOnUse">
      <stop offset="0" stop-color="#0A2540"/>
      <stop offset="1" stop-color="#003D80"/>
    </linearGradient>
    <linearGradient id="accent" x1="0" y1="0" x2="1200" y2="0" gradientUnits="userSpaceOnUse">
      <stop offset="0" stop-color="#007AFF"/>
      <stop offset="1" stop-color="#5AC8FA"/>
    </linearGradient>
  </defs>
  <rect width="1200" height="630" fill="url(#bg)"/>

  <!-- Subtle grid dots -->
  <g fill="#FFFFFF" fill-opacity="0.04">
    <circle cx="1050" cy="120" r="180"/>
    <circle cx="140" cy="540" r="220"/>
  </g>

  <!-- Logo tile (Quill brand mark, scaled 2.4x) -->
  <g transform="translate(120,215) scale(3.1)">
    <rect width="64" height="64" rx="14" fill="#007AFF"/>
    <path d="M48 10 C48 10 54 18 50 30 C47 39 40 44 34 47 L28 54 C28 54 26 52 27 49 L30 44 C22 42 16 34 20 24 C24 14 36 10 48 10 Z" fill="white" fill-opacity="0.95"/>
    <path d="M44 14 C44 14 36 22 30 36 C28 41 28 46 28 49" stroke="#007AFF" stroke-width="1.8" stroke-linecap="round" fill="none"/>
    <path d="M27 49 C25 51 23 53 22 55 C24 55 26 53 28 51 Z" fill="white" fill-opacity="0.85"/>
    <circle cx="21.5" cy="55.5" r="1.6" fill="white"/>
  </g>

  <!-- Wordmark -->
  <text x="380" y="308" font-family="-apple-system, 'SF Pro Display', 'Segoe UI', Helvetica, Arial, sans-serif" font-size="130" font-weight="700" fill="#FFFFFF" letter-spacing="-2">Quill</text>

  <!-- Tagline -->
  <text x="384" y="375" font-family="-apple-system, 'SF Pro Text', 'Segoe UI', Helvetica, Arial, sans-serif" font-size="36" font-weight="400" fill="#B8D4F5">Agentic Infrastructure Management Platform</text>

  <!-- Accent bar -->
  <rect x="384" y="420" width="330" height="6" rx="3" fill="url(#accent)"/>

  <!-- Domain footer -->
  <text x="384" y="500" font-family="-apple-system, 'SF Pro Text', 'Segoe UI', Helvetica, Arial, sans-serif" font-size="28" font-weight="500" fill="#7FA8D9">quillpm.com</text>
</svg>
