<svg width="512" height="512" viewBox="0 0 512 512" fill="none" xmlns="http://www.w3.org/2000/svg" role="img" aria-label="Quill">
  <rect width="512" height="512" rx="112" fill="#007AFF"/>
  <!-- Feather-quill mark centered, base geometry from QuillLogo.tsx (64x64) scaled 5.6x -->
  <g transform="translate(76,76) scale(5.6)">
    <path d="M48 10 C48 10 54 18 50 30 C47 39 40 44 34 47 L28 54 C28 54 26 52 27 49 L30 44 C22 42 16 34 20 24 C24 14 36 10 48 10 Z"
          fill="white" fill-opacity="0.97"/>
    <path d="M44 14 C44 14 36 22 30 36 C28 41 28 46 28 49"
          stroke="#007AFF" stroke-width="1.8" stroke-linecap="round" fill="none"/>
    <path d="M27 49 C25 51 23 53 22 55 C24 55 26 53 28 51 Z" fill="white" fill-opacity="0.9"/>
    <circle cx="23" cy="54" r="1.5" fill="white" fill-opacity="0.75"/>
  </g>
</svg>
